<svg xmlns="http://www.w3.org/2000/svg" xmlns:xlink="http://www.w3.org/1999/xlink" width="34" height="31" viewBox="0 0 34 31">
  <defs>
    <clipPath id="clip-path">
      <rect id="Rectangle_4" data-name="Rectangle 4" width="34" height="31" rx="7" transform="translate(1590.468 163.728)" fill="#fff" stroke="#707070" stroke-width="1"/>
    </clipPath>
  </defs>
  <g id="Group_1" data-name="Group 1" transform="translate(-1590.468 -163.728)" clip-path="url(#clip-path)">
    <path id="icons8-github" d="M12.815,31.8a1.372,1.372,0,0,0,.9-1.258v-3.7a3.257,3.257,0,0,1,.03-.418l-.03.007H11.037a2.74,2.74,0,0,1-2.529-1.234c-.521-.891-.744-2.4-2.083-3.221-.223-.137-.074-.343.372-.343A4.081,4.081,0,0,1,8.806,23a3.2,3.2,0,0,0,2.529,1.371,8.709,8.709,0,0,0,3.438-.38,3.567,3.567,0,0,1,2.661-1.676V22.3c-4.216-.125-6.909-1.416-8.163-3.41a48.625,48.625,0,0,0-6.454.485q-.065-.336-.112-.676a49.351,49.351,0,0,1,6.207-.489,5.3,5.3,0,0,1-.216-.582,52.152,52.152,0,0,0-6.089.066c-.015-.228-.035-.454-.038-.685a52.873,52.873,0,0,1,5.963-.076,6.222,6.222,0,0,1-.1-1.057A5.6,5.6,0,0,1,9.7,12.448c-.372-1.165-.893-3.632.149-4.523a6.484,6.484,0,0,1,4.091,1.439,11.846,11.846,0,0,1,4.239-.755,11.168,11.168,0,0,1,4.165.754,6.484,6.484,0,0,1,4.091-1.439c1.116.959.521,3.427.149,4.523a4.986,4.986,0,0,1,1.19,3.427,6.31,6.31,0,0,1-.082.966,53.309,53.309,0,0,1,6.1.07c0,.231-.025.456-.038.685a52.286,52.286,0,0,0-6.217-.061,5.363,5.363,0,0,1-.242.672,50.082,50.082,0,0,1,6.358.472q-.048.341-.112.676a49.111,49.111,0,0,0-6.6-.467c-1.238,1.972-3.882,3.259-8.016,3.409v.021c1.934,0,3.719,2.673,3.719,4.523v3.7a1.372,1.372,0,0,0,.9,1.258c6.814-2.078,11.745-8,11.745-14.965,0-8.691-7.673-15.763-17.107-15.763S1.071,8.142,1.071,16.833C1.071,23.8,6,29.72,12.815,31.8Z" transform="translate(1589.068 162.929)" fill="#955ae9"/>
  </g>
</svg>
