<svg xmlns="http://www.w3.org/2000/svg" xmlns:xlink="http://www.w3.org/1999/xlink" width="36" height="31" viewBox="0 0 36 31">
  <defs>
    <clipPath id="clip-path">
      <rect id="Rectangle_4" data-name="Rectangle 4" width="36" height="31" rx="7" transform="translate(1550.145 163.788)" fill="#fff" stroke="#707070" stroke-width="1"/>
    </clipPath>
  </defs>
  <g id="Mask_Group_2" data-name="Mask Group 2" transform="translate(-1550.145 -163.788)" clip-path="url(#clip-path)">
    <path id="icons8-linkedin-circundado" d="M18.342,1.043c-9.538,0-17.3,6.9-17.3,15.373S8.8,31.79,18.342,31.79s17.3-6.9,17.3-15.373S27.881,1.043,18.342,1.043ZM13.077,23.1H10.069V13.075h3.008Zm-1.5-12.031a1.428,1.428,0,0,1-1.5-1.337,1.428,1.428,0,0,1,1.5-1.337,1.428,1.428,0,0,1,1.5,1.337A1.428,1.428,0,0,1,11.573,11.07ZM27.368,23.1H24.359V18.088a2.506,2.506,0,0,0-2.632-2.339,2.506,2.506,0,0,0-2.632,2.339V23.1H16.086V13.075h3.008v1.214a5.206,5.206,0,0,1,3.385-1.214,4.641,4.641,0,0,1,4.889,4.345Z" transform="translate(1549.544 162.997)" fill="#955ae9"/>
  </g>
</svg>
