<svg xmlns="http://www.w3.org/2000/svg" xmlns:xlink="http://www.w3.org/1999/xlink" width="690" height="558" viewBox="0 0 690 558">
  <defs>
    <clipPath id="clip-path">
      <rect id="Rectangle_2" data-name="Rectangle 2" width="690" height="558" rx="41" transform="translate(970 261)" fill="#9e9e9e"/>
    </clipPath>
  </defs>
  <g id="Mask_Group_3" data-name="Mask Group 3" transform="translate(-970 -261)" clip-path="url(#clip-path)">
    <g id="woman-talking-in-podcast-character-by-Vexels" transform="translate(997.68 222.677)">
      <path id="Path_51" data-name="Path 51" d="M538.686,372.2c-.325-2.131-.708-4.253-1.191-6.356-1.318-5.744-.895-12.1-1.793-17.967-2.831-18.475-5.754-36.925-8.627-55.388a12.993,12.993,0,0,1-.252-3.092,6.674,6.674,0,0,1,.84-2.82,4.16,4.16,0,0,1,1.945-1.5c.76-.307,2.4.939,2.609,1.887a77.316,77.316,0,0,1,1.65,8.056c1.46,12.778,3.25,25.476,5.1,38.161,1.952,13.368,30.311,211.652,31.313,221.329.787,7.6,2.366,15.076,2.2,22.828a8.058,8.058,0,0,1-.525,1.916c-.232-.168-.575-.258-.678-.515a24.55,24.55,0,0,1-1.677-4.622c-1.716-9.508-3.428-19.021-4.925-28.592-.835-5.335-22.224-150.943-23.236-157.847-.522-3.564-1.63-6.8-2.068-10.421C539.167,375.566,538.945,373.879,538.686,372.2Z" fill="#e3c6c0"/>
      <g id="Group_17" data-name="Group 17">
        <path id="Path_90" data-name="Path 90" d="M497.525,535.031l.04,0a.188.188,0,0,0,.144-.151.192.192,0,0,0,.215-.116,38.757,38.757,0,0,0,2.667-14.2c-.008-1.24-.359-1.989-1.043-2.226a1.567,1.567,0,0,0-1.8.882,4.172,4.172,0,0,0-.3,1.963l.107,10.738a115.475,115.475,0,0,0-2.8-11.367c-.559-1.857-1.516-2.859-2.633-2.743s-1.735,1.288-1.925,2.259c-.575,2.932,1.027,5.826,2.281,7.747a23.025,23.025,0,0,0,1.893,2.383c1.278,1.476,2.6,3,2.969,4.687A.184.184,0,0,0,497.525,535.031Zm.184-.767c-.027.075-.054.149-.082.223a13.034,13.034,0,0,0-2.971-4.536,22.8,22.8,0,0,1-1.863-2.343c-1.219-1.867-2.776-4.674-2.227-7.472.166-.845.684-1.865,1.6-1.959,1.311-.146,2,1.69,2.238,2.48a114.866,114.866,0,0,1,3.181,13.461A.179.179,0,0,0,497.709,534.265Zm1.454-15.621a.784.784,0,0,1,.263.044c.519.18.786.812.793,1.876a37.8,37.8,0,0,1-2.273,13.039l-.124-12.427a3.9,3.9,0,0,1,.262-1.791A1.322,1.322,0,0,1,499.162,518.644Z" fill="#1b2d44"/>
        <path id="Path_91" data-name="Path 91" d="M469.466,559.735a.181.181,0,0,0,.1-.086.187.187,0,0,0-.077-.252,19.075,19.075,0,0,1-8.309-9.165,2.159,2.159,0,0,1-.2-1.011,1.071,1.071,0,0,1,.63-.819,1.836,1.836,0,0,1,1.664.028,4.762,4.762,0,0,1,1.75,2.5,42.6,42.6,0,0,0,2.073,4.042,42.1,42.1,0,0,1,2.055,4,.187.187,0,0,0,.232.1.211.211,0,0,0,.12-.223,17.478,17.478,0,0,0-1.138-2.838,17.429,17.429,0,0,1-1.114-2.773c-.772-2.968-1.441-6.332.4-8.691.19-.243.693-.8,1.244-.677.469.1.768.641.886,1.595a46.33,46.33,0,0,1,0,8.392c-.1,1.6-.2,3.26-.2,4.865a.187.187,0,0,0,.187.186.191.191,0,0,0,.186-.187c0-1.592.1-3.244.194-4.841a46.663,46.663,0,0,0,0-8.461c-.14-1.127-.536-1.771-1.175-1.912a1.7,1.7,0,0,0-1.618.811c-1.854,2.375-1.321,5.736-.469,9.013a10.231,10.231,0,0,0,.45,1.3,40.531,40.531,0,0,1-1.973-3.857,5.221,5.221,0,0,0-1.909-2.681,2.228,2.228,0,0,0-2.017-.038,1.431,1.431,0,0,0-.833,1.107,2.5,2.5,0,0,0,.226,1.191,19.474,19.474,0,0,0,8.481,9.359A.17.17,0,0,0,469.466,559.735Z" fill="#1b2d44"/>
        <path id="Path_92" data-name="Path 92" d="M316.784,424.057c-3.443,1.346-6.915,2.622-10.324,4.051-9.263,3.884-18.732,7.215-28.163,10.65a7.963,7.963,0,0,1-6.144-.045q-28.483-12.009-57-23.946c-1.945-.818-3.835-1.779-5.7-2.774a1.852,1.852,0,0,1-.746-1.311,16.083,16.083,0,0,1,.058-3.154c.922-8.14,4.457-38.06,5.269-44.884a20.7,20.7,0,0,0,.281-3.152,4.939,4.939,0,0,0-.622-2.255,2.869,2.869,0,0,0-5.116-.29,7.033,7.033,0,0,0-.978,2.143,27.184,27.184,0,0,0-.642,3.9c-.8,8.953-1.915,17.869-2.96,26.795-.676,5.774-1.051,11.583-2.076,17.316a1.337,1.337,0,0,1-1.686,1.073,119.791,119.791,0,0,1-15.286-6.479,1.861,1.861,0,0,1-.992-1.992c.787-4.691,1.522-9.394,2.465-14.055,2.831-13.982,5.754-27.945,8.627-41.919a7.517,7.517,0,0,0,.252-2.34,3.47,3.47,0,0,0-2.785-3.271,2.894,2.894,0,0,0-2.609,1.428,46.338,46.338,0,0,0-1.65,6.1c-1.46,9.671-3.25,19.28-5.1,28.881-1.952,10.117-30.311,160.183-31.313,167.507-.787,5.749-2.366,11.409-2.2,17.277a4.988,4.988,0,0,0,.525,1.45c.232-.127.575-.195.678-.39a15.953,15.953,0,0,0,1.677-3.5c1.716-7.2,3.428-14.4,4.925-21.639,3.1-15.005,22.579-116.185,24.213-124.48.356-1.81.917-3.58,1.4-5.365a1.764,1.764,0,0,1,1.946-.9q7.554,3.479,15.1,6.982a3.3,3.3,0,0,1,1.316,2.709c-.946,9.2-14.153,137.775-14.854,145.142a71.813,71.813,0,0,0-.367,13.44,2.3,2.3,0,0,0,.344.71c.391-.235,1-.384,1.134-.72a17.9,17.9,0,0,0,1.134-3.788c.766-5.229,10.574-83.1,11.644-91.226a3.027,3.027,0,0,1,1.847-2.4c4.333-1.954,8.665-3.912,13.048-5.75,11.939-5.007,23.933-9.882,35.844-14.955,6.074-2.586,12.024-5.465,18.015-8.243,7.2-3.339,5.8-3.157,12.579-.158,15.7,6.946,31.552,13.581,47,21.091a27.064,27.064,0,0,1,3.492,1.836,3.391,3.391,0,0,1,1.336,1.849c.629,2.836,1.134,5.7,1.606,8.571,1.5,9.125,6.839,43.056,8.148,50.874,2.179,13.017,4.047,26.088,6.751,39.014.049.232.313.419.476.627.222-.442.652-.893.631-1.323-.149-3.164-.244-6.341-.627-9.481-.735-6.031-1.642-12.041-2.49-18.059-.885-6.279-7.689-54.689-9.243-65.945-.035-.259.024-.529,0-.79a1.585,1.585,0,0,1,2.1-1.632c5.567,2.43,11.134,4.861,16.671,7.357,2.89,1.3,5.778,2.632,8.56,4.146,2.519,1.371,5.726,1.715,7.507,4.145,1.746,2.383,1.765,5.5,2.488,8.294,5.5,21.228,10.816,42.5,16.283,63.74,1.514,5.883,3.311,11.693,5.046,17.516a6.228,6.228,0,0,0,1.3,1.9.965.965,0,0,0,.738.223c.165-.014.372-.242.453-.423a6.04,6.04,0,0,0,0-3.881c-2.167-9.8-4.225-19.634-6.6-29.387-10.378-42.613-48.844-198.3-49.627-200.81a2.543,2.543,0,0,0-3.829-1.467,2.25,2.25,0,0,0-1.186,1.92,6.338,6.338,0,0,0,.127,1.563c8.309,33.325,32.849,131.76,33.079,133.059a1.448,1.448,0,0,1-1.82,1.734c-1.224-.49-2.449-.98-3.652-1.518-8.44-3.778-16.845-7.638-25.332-11.308a5.64,5.64,0,0,1-3.751-4.649c-.719-4.969-5.559-39.246-6.3-43.944a2.894,2.894,0,0,1,1.173-2.744c.532-.461.409-.828-.319-1.115a2.313,2.313,0,0,1-1.449-1.729c-.444-2.068-.9-4.137-1.218-6.227-2.117-14.111-4.244-28.221-6.268-42.346-.862-6.016-1.453-12.07-2.227-18.1-.37-2.882-.842-5.753-1.344-8.615a3.135,3.135,0,0,0-3.6-2.332,3.658,3.658,0,0,0-2.57,3.566c.066.787.122,1.58.262,2.356.469,2.6.975,5.191,1.465,7.787,1.814,9.609,3.3,19.268,4.675,28.951,1.223,8.632,2.731,17.223,4.082,25.837.451,2.872.693,5.78,1.23,8.634.831,4.418.926,4.64-3.312,6.674A5.273,5.273,0,0,0,319,424.344c1.737-.632,3.472-1.268,5.21-1.894a1.434,1.434,0,0,1,1.787.987c.437,1.793.9,3.584,1.224,5.4.459,2.6.779,5.227,1.19,7.837,1.195,7.571,2.425,15.136,3.591,22.711a36.018,36.018,0,0,1,.217,3.954c.026.63-1.086,1.456-1.665,1.23-1.467-.573-2.961-1.083-4.4-1.727-9.4-4.221-37.363-16.782-41.934-18.858a22.628,22.628,0,0,1-2.725-1.6.956.956,0,0,1-.413-.65c-.007-.169.262-.431.464-.516,2.676-1.13,5.348-2.266,8.045-3.342,8.35-3.333,16.49-7.13,24.583-11.034A4.777,4.777,0,0,0,316.784,424.057ZM201.667,466.479c.524-3.742,1.146-7.656,1.61-11.589,1.3-11.019,2.514-22.048,3.809-33.067a45.668,45.668,0,0,1,.957-4.647,1.749,1.749,0,0,1,2.442-1.188c5.836,2.471,55.893,23.73,58.27,24.868.221.106.554.446.512.55a2.016,2.016,0,0,1-.692,1.057c-5.9,2.984-11.974,5.556-18.116,7.989-4.664,1.847-9.325,3.712-13.923,5.715-9.2,4.009-18.347,8.136-27.534,12.173-1.92.844-3.9,1.551-5.9,2.2-.281.092-1.051-.418-1.125-.753A24.994,24.994,0,0,1,201.667,466.479Z" fill="#e3c6c0"/>
        <path id="Path_93" data-name="Path 93" d="M291.931,387.126a263.356,263.356,0,0,0,33.183-2,152.165,152.165,0,0,0,58.747-20.331,42.548,42.548,0,0,0,5.755-4.173,12.605,12.605,0,0,0,4.245-11.416,29.058,29.058,0,0,0-5.179-13.973,56.912,56.912,0,0,0-5.664-6.608,118.805,118.805,0,0,0-14.524-12.275c-13.522-9.824-28.1-17.834-43.062-25.181a7.549,7.549,0,0,0-1.423-.691c-7.674-1.881-6.351-2.427-14.607-9.037-12.952-10.371-21.932-23.525-27.722-38.918-3.441-9.147-6.5-18.439-9.766-27.651-3.977-11.2-7.91-22.421-12.029-33.571a112.6,112.6,0,0,0-9.071-18.485,74.09,74.09,0,0,0-12.327-15.455,27.963,27.963,0,0,0-14.566-7.536,21.037,21.037,0,0,0-9.428.212c-4.079,1.081-8.173,2.108-12.25,3.2-15.938,4.255-27.775,13.957-35.9,28.038a134.438,134.438,0,0,0-15.1,39.03c-2.248,10.436-2.443,20.971-2.22,31.564a296.668,296.668,0,0,0,5.053,48.049,91.114,91.114,0,0,0,2.374,10.016,85.825,85.825,0,0,1,2.679,13.141,85.145,85.145,0,0,0,14.008,35.875c2.067,3.065,4.367,5.975,6.594,8.93a43,43,0,0,0,15.92,12.8,53.529,53.529,0,0,0,6.576,2.749,248.007,248.007,0,0,0,32.888,8.779c7.276,1.329,14.549,2.606,21.916,3.437C267.309,386.8,277.6,386.855,291.931,387.126Z" fill="#f5d0ca"/>
        <path id="Path_94" data-name="Path 94" d="M232.142,369.241a.186.186,0,0,0,.06-.362c-17.949-6.175-38.147-14.1-50.656-30.124-9.924-12.709-13.916-29.257-17.438-43.856a.191.191,0,0,0-.225-.138.186.186,0,0,0-.138.225c3.532,14.636,7.533,31.225,17.507,44,12.572,16.1,32.829,24.054,50.83,30.246A.17.17,0,0,0,232.142,369.241Z" fill="#1b2d44"/>
        <path id="Path_95" data-name="Path 95" d="M159.267,268.469l.041,0a.187.187,0,0,0,.141-.223,121.675,121.675,0,0,1,9.533-80.4.186.186,0,0,0-.335-.164,122.052,122.052,0,0,0-9.562,80.643A.187.187,0,0,0,159.267,268.469Z" fill="#1b2d44"/>
        <path id="Path_96" data-name="Path 96" d="M176.429,182.787a.186.186,0,0,0,.155-.083l11.709-17.533a23.78,23.78,0,0,1,4.611-5.581,24.027,24.027,0,0,1,4.273-2.534,21.042,21.042,0,0,0,4.886-3.049.186.186,0,1,0-.252-.275,20.751,20.751,0,0,1-4.8,2.991,24.3,24.3,0,0,0-4.338,2.576,24.037,24.037,0,0,0-4.688,5.665L176.275,182.5a.187.187,0,0,0,.052.259A.191.191,0,0,0,176.429,182.787Z" fill="#1b2d44"/>
        <path id="Path_97" data-name="Path 97" d="M286.7,89.612c-1.812,0-3.131-.076-4.44.014a11.638,11.638,0,0,0-9.607,6.085c-3.328,5.7-3.406,11.591.165,17.208,3.1,4.875,7.812,6.9,13.518,6.4a21.9,21.9,0,0,0,6.849-1.789,13.618,13.618,0,0,1,7.7-1.071,6.5,6.5,0,0,0,7.548-4.358c1.012-2.593,2.878-4.315,4.8-6.117a4.4,4.4,0,0,0,.6-5.763,10.074,10.074,0,0,0-3.91-3.807c-1.39-.742-2.821-1.418-4.277-2.021-5.559-2.3-9.963-5.841-12.494-11.442-.216-.478-.5-.924-.752-1.387a.965.965,0,0,0-1.27-.545,1.794,1.794,0,0,0-1.176,1.819c.385,1.793.818,3.577,1.232,5.364a1.248,1.248,0,0,1-1.046,1.655c-.526-.014-1.054-.01-1.577-.051C287.771,89.738,286.987,89.642,286.7,89.612Zm-7.651,19.833-.271,1.251c-.41-.234-.951-.374-1.2-.723-.444-.623-.672-1.395-1.059-2.065-1.939-3.357-1.157-6.6.629-9.639a7.217,7.217,0,0,1,5.772-3.561,15.337,15.337,0,0,1,9.733,2.193c.2.12.472.389.446.545-.079.473-.167,1.221-.463,1.341-5.176,2.09-8.961,6.233-13.558,9.168C278.854,108.1,279.047,108.884,279.047,109.445Z" fill="#5780b5"/>
        <path id="Path_98" data-name="Path 98" d="M238.675,73.187a43.015,43.015,0,0,0,7.54,25.395c1.815,2.611,3.535,5.364,5.452,7.888a22.657,22.657,0,0,0,3.312,2.908c.9.8,2.33,1.719,2.695,2.9a6.024,6.024,0,0,1,.1,2.466c-.609,5.256-3.077,11.577-7.7,14.47-2.009,1.259-4.233,2.169-6.293,3.353a14.38,14.38,0,0,0-3.153,2.351,5.436,5.436,0,0,0-1.452,5.823,26.946,26.946,0,0,0,3.367,7.147c6.262,8.844,14.47,14.516,25.449,15.787a25.152,25.152,0,0,0,10.915-1.371,57.478,57.478,0,0,0,20.337-12.027,29.717,29.717,0,0,0,3.973-4.9,6.026,6.026,0,0,0,.7-2.25c.217-1.03-.781-3.064-1.686-3.353-2.263-.72-4.536-1.41-6.826-2.036a53.26,53.26,0,0,1-14.55-6.139c-2.356-1.486-3.186-2.717-2.6-5.619.487-2.39,1.522-4.7,2.236-7.032a17.3,17.3,0,0,1,5.256-7.8c.7-.558,1.476-1.028,2.177-1.59a16.329,16.329,0,0,0,3.025-3.392,28.565,28.565,0,0,0,5.561-16.155c.005-5.769-2.452-11.943-5.164-16.947A75.944,75.944,0,0,1,284.318,56.3c-1.047-3.962-3.806-6.922-7.27-9.1a27.992,27.992,0,0,0-13.413-4.47c-8.852-.473-16.007,2.778-20.714,10.6a32.161,32.161,0,0,0-4.209,13.514C238.5,68.94,238.684,71.073,238.675,73.187Z" fill="#ec8773"/>
        <path id="Path_99" data-name="Path 99" d="M411.127,483.633a19.553,19.553,0,0,0,1.738,7.935,37.842,37.842,0,0,0,7.985,11.718,85.612,85.612,0,0,0,6.514,5.785c12.708,9.908,25.129,20.19,38.292,29.507q6.142,4.347,12.306,8.663a3.325,3.325,0,0,0,4.906-.677c2.561-3.018,5.039-6.106,7.539-9.176a2.452,2.452,0,0,0-.232-2.915c-.361-.386-.71-.785-1.1-1.144-12.19-11.336-44.825-41.426-48.864-45.231a85.866,85.866,0,0,0-10.588-8.308,28.6,28.6,0,0,0-6.378-3.14,15.354,15.354,0,0,0-5.443-.859,6.5,6.5,0,0,0-6.49,5.741C411.221,482.318,411.173,483.109,411.127,483.633Z" fill="#ec8773"/>
        <path id="Path_100" data-name="Path 100" d="M474.655,576.246a14.028,14.028,0,0,0-2.613-8.673c-2.816-3.834-5.505-7.766-8.418-11.524-8.259-10.654-16.685-21.179-24.871-31.889a61.817,61.817,0,0,0-8.971-8.9,15.649,15.649,0,0,0-3.44-1.908c-3.709-1.826-7.834,1.13-8.514,4.57a21.756,21.756,0,0,0,1.028,11.686,61.262,61.262,0,0,0,6.75,13.425A262.461,262.461,0,0,0,450.2,575.093q4.805,5.278,9.713,10.462a45.572,45.572,0,0,0,4.041,3.793,5.074,5.074,0,0,0,7.532-1.492,17.71,17.71,0,0,0,1.161-2.072A30.4,30.4,0,0,0,474.655,576.246Z" fill="#ec8773"/>
        <path id="Path_101" data-name="Path 101" d="M211.243,313.684c-.323,6.414.839,12.665,2.429,18.82a102.067,102.067,0,0,0,10.391,25.639A78.249,78.249,0,0,0,236,373.9a164.7,164.7,0,0,0,17.389,15.034,265.2,265.2,0,0,0,35.168,22.947q9.057,4.92,18.16,9.758a107.6,107.6,0,0,1,14.123,8.793,55.864,55.864,0,0,1,10.887,10.36c2.588,3.346,5.293,6.6,7.87,9.957a115.464,115.464,0,0,0,11.573,13.042,88.54,88.54,0,0,1,14.41,17.847,70.909,70.909,0,0,0,13.01,15.912c2.158,1.948,4.2,4.029,6.261,6.079a81.486,81.486,0,0,1,15.208,20.193c1.338,2.574,2.968,5,4.436,7.5a54.99,54.99,0,0,1,2.69,4.829,37.811,37.811,0,0,0,10.058,13.111,73.6,73.6,0,0,1,8.557,8.244,2,2,0,0,0,3.24-.661c.1-.244.219-.482.318-.727a8.18,8.18,0,0,0,.569-1.478c.961-5.137,4.223-9.057,7.091-13.141a15.348,15.348,0,0,1,7.365-5.81,2.042,2.042,0,0,1,2.171.388c.521.595.993,1.232,1.491,1.847a8.941,8.941,0,0,0,1.016,1.2,2.909,2.909,0,0,0,2.933.591c1.355-.418,2.466-1.144,2.609-2.616a42.554,42.554,0,0,0,.14-5.521,5.57,5.57,0,0,0-2.123-4.1c-2-1.714-4.025-3.4-5.963-5.179-.266-.244-.138-.964-.108-1.459a1.219,1.219,0,0,1,.351-.7,55.6,55.6,0,0,1,11.726-9.381,6.675,6.675,0,0,1,1.481-.558,2.535,2.535,0,0,1,2.262.232c1.3.906,2.523,1.929,3.871,2.75a5.131,5.131,0,0,0,7.022-1.463c.155-.214.309-.428.468-.639a4.83,4.83,0,0,0,.658-5.214,34.923,34.923,0,0,0-5.556-8.646c-2.974-3.369-5.891-6.8-9.035-10.006-6.111-6.23-22.65-22.6-24.617-24.738a20.294,20.294,0,0,1-4.006-5.874,36.963,36.963,0,0,0-5.073-8.013c-2.549-3.376-5.171-6.706-7.544-10.2-11.877-17.5-24.127-34.749-35.636-52.5q-19.207-29.628-40.413-57.868-10.485-13.949-20.769-28.05a46.241,46.241,0,0,0-7.453-8.186c-4.451-3.745-8.847-7.556-13.286-11.317a61.258,61.258,0,0,0-26.1-12.744,89.459,89.459,0,0,0-16.458-2.358c-12.526-.567-23.388,3.557-32.014,12.909a53.776,53.776,0,0,0-8.864,12.129c-.949,1.887-1.991,3.729-3.054,5.555a20.722,20.722,0,0,0-2.753,9.017C211.544,307.874,211.389,310.779,211.243,313.684Z" fill="#955ae9"/>
        <g id="Group_9" data-name="Group 9">
          <path id="Path_102" data-name="Path 102" d="M422.849,449.142c2.678,2.442,5.414,4.82,8.179,7.161.045.1.1.2.147.3.074.179.173.344.254.519q-5.114-4.3-10.035-8.834C421.873,448.587,422.36,448.865,422.849,449.142Z" fill="#1b2d44"/>
          <path id="Path_103" data-name="Path 103" d="M373.564,399.766l-1.8-1.112c-6.74-4.155-13.709-8.452-19.431-14.076a107.337,107.337,0,0,1-9.578-11.339c-1.487-1.935-3.024-3.936-4.6-5.846-.6-.729-1.248-1.42-1.869-2.133.542.427,1.067.876,1.622,1.286.173.207.362.4.534.609,1.581,1.915,3.12,3.919,4.609,5.857a107.045,107.045,0,0,0,9.543,11.3c5.693,5.594,12.644,9.88,19.366,14.025l1.8,1.112a62.9,62.9,0,0,1,9.472,6.775.528.528,0,0,0-.17.345A62.127,62.127,0,0,0,373.564,399.766Z" fill="#1b2d44"/>
          <path id="Path_104" data-name="Path 104" d="M298.892,315.207a.187.187,0,0,1,.317.2c-.366.591-.763,1.157-1.172,1.714a1.6,1.6,0,0,0-.347-.159C298.11,316.39,298.517,315.811,298.892,315.207Z" fill="#1b2d44"/>
          <path id="Path_105" data-name="Path 105" d="M293.12,322.188c-.063.05-.121.106-.185.156.079.039.154.086.233.126a3.828,3.828,0,0,0,.128.5c-.267-.138-.525-.289-.8-.42a.186.186,0,0,1-.031-.317c.212-.159.4-.339.61-.5A3.337,3.337,0,0,0,293.12,322.188Z" fill="#1b2d44"/>
          <path id="Path_106" data-name="Path 106" d="M313.321,344.6q.558.552,1.125,1.1C314.058,345.345,313.686,344.977,313.321,344.6Z" fill="#1b2d44"/>
          <path id="Path_107" data-name="Path 107" d="M283.974,319.724a99.459,99.459,0,0,0-16.58-3.358.186.186,0,0,1-.164-.206.182.182,0,0,1,.206-.164,99.865,99.865,0,0,1,16.643,3.37.186.186,0,0,1-.052.365A.18.18,0,0,1,283.974,319.724Z" fill="#1b2d44"/>
          <path id="Path_108" data-name="Path 108" d="M305.995,292.8a45.346,45.346,0,0,0,14.227,5.191c.116.146.226.3.341.444a45.735,45.735,0,0,1-15.033-5.476C305.685,292.9,305.84,292.853,305.995,292.8Z" fill="#1b2d44"/>
          <path id="Path_109" data-name="Path 109" d="M298.835,288.021A.19.19,0,0,1,299.1,288c.924.783,1.884,1.515,2.862,2.219-.161.042-.323.079-.485.12-.894-.653-1.771-1.335-2.62-2.054A.187.187,0,0,1,298.835,288.021Z" fill="#1b2d44"/>
          <path id="Path_110" data-name="Path 110" d="M237.929,312.653c-3.35,6.361-8.119,13.635-15.551,16.2a.17.17,0,0,1-.06.01.186.186,0,0,1-.06-.362c7.524-2.592,12.152-9.841,15.68-16.666C237.943,312.111,237.94,312.385,237.929,312.653Z" fill="#1b2d44"/>
          <path id="Path_111" data-name="Path 111" d="M239.923,296.068a.187.187,0,0,1,.189.181l.019.679c-.125-.021-.249-.032-.374-.058l-.017-.611A.187.187,0,0,1,239.923,296.068Z" fill="#1b2d44"/>
          <path id="Path_112" data-name="Path 112" d="M242.516,296.79a.182.182,0,0,1,.2.175c0,.045,0,.09.007.135-.125,0-.248.016-.373.017,0-.043,0-.085-.007-.129A.187.187,0,0,1,242.516,296.79Z" fill="#1b2d44"/>
          <path id="Path_113" data-name="Path 113" d="M241.158,308.678c.126-.308.272-.609.379-.922a19.71,19.71,0,0,0,.939-5.978c.125,0,.249-.016.373-.022a20.1,20.1,0,0,1-.96,6.121c-.2.587-.45,1.157-.707,1.721C241.182,309.293,241.171,308.986,241.158,308.678Z" fill="#1b2d44"/>
          <path id="Path_114" data-name="Path 114" d="M236.963,317.665c-3.006,5.2-6.95,10.54-12.638,13.3a.18.18,0,0,1-.081.019.186.186,0,0,1-.082-.354c5.444-2.645,9.285-7.717,12.232-12.729a.558.558,0,0,0,.075-.012C236.651,317.828,236.795,317.738,236.963,317.665Z" fill="#1b2d44"/>
          <path id="Path_115" data-name="Path 115" d="M433.893,510.764c-5.148-2.155-10.471-4.383-14.463-8.343a44.133,44.133,0,0,1-5.033-6.415,25.538,25.538,0,0,0-14.108-11.853,30.966,30.966,0,0,1-14.476-11.121c-1.159-1.358-2.358-2.761-3.613-4.054-4.685-4.824-10.473-8.453-16.071-11.964a.187.187,0,0,1,.2-.316c5.617,3.521,11.426,7.163,16.141,12.02,1.263,1.3,2.466,2.71,3.629,4.072a30.617,30.617,0,0,0,14.344,11.021A25.88,25.88,0,0,1,414.7,495.794a43.857,43.857,0,0,0,4.988,6.361c3.941,3.909,9.229,6.123,14.345,8.264,1.851.775,3.726,1.561,5.555,2.432-.072.1-.15.2-.22.308C437.569,512.3,435.719,511.529,433.893,510.764Z" fill="#1b2d44"/>
          <path id="Path_116" data-name="Path 116" d="M447.982,518.245a.186.186,0,0,1-.127.323.183.183,0,0,1-.126-.05,32.435,32.435,0,0,0-8.019-5.191c.069-.1.148-.2.219-.307A32.665,32.665,0,0,1,447.982,518.245Z" fill="#1b2d44"/>
          <path id="Path_117" data-name="Path 117" d="M319.261,418.763a52.43,52.43,0,0,1,19.081,12.172c.854.856,1.7,1.762,2.514,2.637,2.677,2.871,5.446,5.841,8.988,7.548a.187.187,0,0,1-.081.355.193.193,0,0,1-.081-.018c-3.605-1.737-6.4-4.733-9.1-7.631-.814-.874-1.656-1.776-2.5-2.627a52.038,52.038,0,0,0-18.944-12.085.187.187,0,0,1-.112-.239A.191.191,0,0,1,319.261,418.763Z" fill="#1b2d44"/>
          <path id="Path_118" data-name="Path 118" d="M230.579,346.472c.1.021.188.077.193.18.138,3.783,3.262,6.571,5.112,7.9a45.522,45.522,0,0,0,3.877,2.4,39.321,39.321,0,0,1,4.521,2.874c3.393,2.624,5.809,6.273,8.146,9.8,1,1.515,2.04,3.083,3.14,4.546,8,10.643,20.153,17,31.9,23.147,9.019,4.719,18.344,9.6,25.914,16.418a.186.186,0,1,1-.249.277c-7.534-6.788-16.839-11.656-25.837-16.364-11.786-6.167-23.974-12.543-32.028-23.253-1.106-1.472-2.147-3.044-3.153-4.564-2.32-3.5-4.718-7.129-8.063-9.714a38.762,38.762,0,0,0-4.478-2.847c-1.307-.75-2.66-1.526-3.908-2.42-1.906-1.365-5.124-4.244-5.268-8.186A.186.186,0,0,1,230.579,346.472Z" fill="#1b2d44"/>
          <path id="Path_119" data-name="Path 119" d="M223.907,295.7a.186.186,0,0,1,.32.191,34.921,34.921,0,0,0-1.8,3.537c-.12-.036-.24-.072-.358-.11A35.24,35.24,0,0,1,223.907,295.7Z" fill="#1b2d44"/>
          <path id="Path_120" data-name="Path 120" d="M219.667,320.206c1.424,8.585,6.014,16.575,10.062,23.624a.187.187,0,0,1-.069.255.184.184,0,0,1-.093.025.187.187,0,0,1-.162-.093c-4.064-7.077-8.671-15.1-10.107-23.749a36.987,36.987,0,0,1,1.6-17.97l.338.164A36.6,36.6,0,0,0,219.667,320.206Z" fill="#1b2d44"/>
          <path id="Path_121" data-name="Path 121" d="M464.924,497.729a24.989,24.989,0,0,0-4.463.174c-3.621.594-6.74,2.9-9.493,4.941-3.683,2.725-7.491,5.544-10.357,9.22-.244.313-.459.636-.682.956-.072.1-.15.2-.219.307a17.041,17.041,0,0,0-3.167,10.576c-.13-.06-.261-.119-.39-.181a17.5,17.5,0,0,1,3.219-10.562c.07-.1.148-.205.22-.308.237-.341.466-.683.725-1.017,2.9-3.717,6.727-6.551,10.43-9.291,2.786-2.063,5.944-4.4,9.655-5.009a24.985,24.985,0,0,1,4.53-.178,27.593,27.593,0,0,0,3.925-.1c.094.106.176.221.268.328A25.374,25.374,0,0,1,464.924,497.729Z" fill="#1b2d44"/>
          <path id="Path_122" data-name="Path 122" d="M419.1,543.25c.5-.187,1.01-.38,1.481-.61,2.428-1.185,3.964-3.385,5.591-5.716a27.036,27.036,0,0,1,3.372-4.2c2.617-2.486,5.962-3.688,9.654-4.336.15.07.295.152.445.221.047.022.1.041.152.062-3.84.615-7.319,1.783-9.995,4.324a26.706,26.706,0,0,0-3.322,4.147c-1.582,2.266-3.219,4.61-5.733,5.837-.488.238-1.009.434-1.513.624a7.033,7.033,0,0,0-2.975,1.691,4.639,4.639,0,0,0-.984,2.16c-.108-.1-.213-.21-.318-.315a4.816,4.816,0,0,1,1.023-2.092A7.432,7.432,0,0,1,419.1,543.25Z" fill="#1b2d44"/>
          <path id="Path_123" data-name="Path 123" d="M358.941,472.176c-.021-.007-.038-.01-.058-.017-.159-.2-.339-.383-.5-.578q1.847.642,3.669,1.366C361.015,472.641,359.974,472.385,358.941,472.176Z" fill="#1b2d44"/>
          <path id="Path_124" data-name="Path 124" d="M403.463,497.786a19.969,19.969,0,0,1,2.5.987c-.976-.384-3.755-1.415-3.755-1.415-6.434-2.393-13.718-5.433-20.116-10.017-.571-.624-1.16-1.236-1.779-1.827,6.808,5.419,14.931,8.856,22.024,11.494l1.014.376A.241.241,0,0,0,403.463,497.786Z" fill="#1b2d44"/>
          <path id="Path_125" data-name="Path 125" d="M403.3,432.251c-7.053-8.055-14.579-16.149-20.161-25.329a.561.561,0,0,1-.082-.352.528.528,0,0,1,.17-.345.641.641,0,0,1,.858-.033c15.219,12.972,24.414,32.8,41.206,43.723a.249.249,0,0,1-.251.43c-.744-.37-1.469-.789-2.2-1.2-.489-.278-.975-.556-1.456-.851C414.555,444.091,408.487,438.169,403.3,432.251Z" fill="#1b2d44"/>
          <path id="Path_126" data-name="Path 126" d="M322.673,353.141c-2.746-2.485-5.559-4.894-8.227-7.444q-.568-.543-1.125-1.1a55.013,55.013,0,0,1-5.6-6.362,83.785,83.785,0,0,0-6.52-8.518c-1.934-2.018-6.193-3.593-7.515-5.885a4.941,4.941,0,0,1-.388-.869,3.856,3.856,0,0,1-.128-.5c-.02-.095-.037-.189-.049-.281a3.5,3.5,0,0,1-.04-.463c.023-1.744,1.439-3.115,3.031-4.447a1.643,1.643,0,0,1,1.926-.161,1.529,1.529,0,0,1,.335,2.422c-1.811,2.013,5.327,7.99,6.093,9.026,3.412,4.615,5.742,9.73,9.651,14.036,7.569,8.337,16.975,14.893,24.431,23.326.313.354-.109,1.018-.54.7-.034-.025-.066-.054-.1-.079-.555-.41-1.08-.859-1.622-1.286C331.518,361.508,327.167,357.207,322.673,353.141Z" fill="#1b2d44"/>
          <path id="Path_127" data-name="Path 127" d="M362.053,472.947a43.923,43.923,0,0,1,8.342,3.428,17.949,17.949,0,0,1,4.691,4.1c1.614,1.775,3.477,3.368,5.227,5.039.619.591,1.208,1.2,1.779,1.827.253.277.526.539.766.826a.145.145,0,0,1-.175.226c-2.163-1.189-3.846-2.9-5.9-4.265-2.633-1.748-5.682-2.736-8.594-3.981-1.543-.66-3.18-1.264-4.823-1.888-1.416-2.094-2.9-4.147-4.483-6.1.018,0,.041.013.058.017C359.974,472.385,361.015,472.641,362.053,472.947Z" fill="#1b2d44"/>
          <path id="Path_128" data-name="Path 128" d="M453.661,534.238c-2.122-3.56-10.13-3.949-13.87-5.57-.049-.021-.1-.04-.152-.062-.15-.069-.3-.151-.445-.221a54.5,54.5,0,0,1-10.893-6.794c-8.437-6.763-12.51-18.236-22.339-22.819a20.034,20.034,0,0,0-2.5-.987.241.241,0,0,1-.112-.4.252.252,0,0,1,.251-.1c5.149.886,10.48,2.809,14.427,6.4,5.007,4.558,7.063,11.428,12.149,16.033a24.914,24.914,0,0,0,5.974,4.006c.13.062.26.121.39.181,4.208,1.95,8.757,2.8,13.631,3.8a14.523,14.523,0,0,1,3.656,1.159,5.122,5.122,0,0,1,.915,2.718c.037,1.12.026,2.244-.015,3.366A1.465,1.465,0,0,1,453.661,534.238Z" fill="#1b2d44"/>
          <path id="Path_129" data-name="Path 129" d="M305.53,292.957c-9.762,3.335-19.82,1.285-30.555,2.6-3.3.405-6.389.038-9.689.072-5.53.058-9.779,2.142-14.755,4.2a22.015,22.015,0,0,1-5.413,1.4c-1.8.274-2.32,2.525-2.752,4.033-1.47,5.128-2,10.39-6.645,13.787a11.606,11.606,0,0,1,1.4-2.525,6.917,6.917,0,0,0,.813-3.87c.011-.269.015-.542.009-.822a49.255,49.255,0,0,0-1.723-9.49,30.021,30.021,0,0,1,4.5-2.64c.964-.414.477-2.063-.536-1.977a21.958,21.958,0,0,0-4.647,1.011l-.005-.043a2.271,2.271,0,0,1,2.857-2.177,12.668,12.668,0,0,0,1.368.355c.126.026.249.036.374.058a12.59,12.59,0,0,0,2.218.188c.125,0,.249-.012.373-.017,5.167-.186,9.725-3.289,15.122-3.715,6.539-.516,12.281-.255,18.788-1.877,5.928-1.478,10.355-.324,16.394-.1a30.013,30.013,0,0,0,8.451-1.069c.162-.04.324-.078.485-.12,2.642-.682,5.255-1.512,7.933-2.171q1.046.892,2.1,1.782A29.968,29.968,0,0,1,306,292.8C305.84,292.853,305.685,292.9,305.53,292.957Z" fill="#1b2d44"/>
          <path id="Path_130" data-name="Path 130" d="M220.131,298.546a11.828,11.828,0,0,0,1.938.775c.117.038.238.073.358.11,1.137.349,2.33.641,3.046.8,3.611.793,6.775-.479,10.064-1.495a21.919,21.919,0,0,1,4.647-1.011c1.013-.085,1.5,1.564.536,1.977a30,30,0,0,0-4.5,2.64,14.267,14.267,0,0,1-5.727,2.5c-3.961.605-6.088-.839-9.255-2.378-.113-.055-.53-.259-.633-.307-2.541-1.182-4.339-1.161-6.221-3.648a10.623,10.623,0,0,1-.66-.984c.249-.526.5-1.053.793-1.564q.972-1.669,1.894-3.368C217.048,295.02,217.512,297.1,220.131,298.546Z" fill="#1b2d44"/>
        </g>
        <path id="Path_131" data-name="Path 131" d="M216.849,113.833a23.091,23.091,0,0,0,7.061-.813,7.605,7.605,0,0,1,6.1.934,47.117,47.117,0,0,1,4.625,3.05,9.123,9.123,0,0,0,9.028,1.221,8.746,8.746,0,0,1,6.138-.459,18.351,18.351,0,0,0,3.121.515c2.319.269,3.886-.658,5.083-2.947a3.9,3.9,0,0,0-.477-4.425,21.256,21.256,0,0,0-1.666-1.68c-.993-.871-2.067-1.651-3.04-2.542a23.68,23.68,0,0,1-6.147-10.04,43.973,43.973,0,0,1-1.371-5.375,14.322,14.322,0,0,1,.95-9.3,29.783,29.783,0,0,1,1.324-2.878,10.853,10.853,0,0,1,1.954-2.406,24.587,24.587,0,0,1,2.626-1.766,26.543,26.543,0,0,0,7.142-7.344c2.622-3.969,5.273-7.916,6.948-12.422a2.455,2.455,0,0,1,3.3-1.231q.362.163.725.322a55.719,55.719,0,0,1,14.664,9.3,22.458,22.458,0,0,1,2.623,2.575,8.842,8.842,0,0,1,1.366,2.454,2.027,2.027,0,0,0,.424.732.917.917,0,0,0,.767.291c.592-.093.846-1.18.958-1.655.185-.785.2-1.6.358-2.387a11.4,11.4,0,0,0,.1-3.514,25.925,25.925,0,0,0-1.854-6.739,25.15,25.15,0,0,0-7.848-10.358,30.351,30.351,0,0,0-15.884-6.579,13.98,13.98,0,0,0-3.152.1c-1.572.2-3.121.593-4.694.759a17.312,17.312,0,0,0-6.766,2.1,33.013,33.013,0,0,1-10.363,3.729,23.67,23.67,0,0,0-8.662,3.782c-4.374,2.864-7.491,6.634-8.581,11.873-.483,2.324-1.035,4.637-1.46,6.972a22.418,22.418,0,0,1-7.029,13.008c-1.954,1.778-3.823,3.653-5.66,5.553a30.2,30.2,0,0,0-6.575,9.815,10.021,10.021,0,0,0-.172,7.715c.2.491.373.99.552,1.487,2.09,5.787,5.936,8.563,11.873,8.57C215.793,113.833,216.321,113.84,216.849,113.833Z" fill="#5780b5"/>
        <path id="Path_132" data-name="Path 132" d="M526.89,526.428c-1.486.163-4.107.42-6.72.743-7.056.873-14.144,1.558-21.148,2.741-4.515.762-8.9-.008-13.346-.078a.916.916,0,0,0-.655.4.805.805,0,0,0,.107.656,13.816,13.816,0,0,0,.889,1.292c.314.417.688.793.979,1.225a1.813,1.813,0,0,1-.166,2.162,21.392,21.392,0,0,1-6.412,4.529,22.507,22.507,0,0,0-5.2,3.536,3.791,3.791,0,0,0-.842,4.335A28.83,28.83,0,0,0,481.887,558a10.673,10.673,0,0,0,8.813,2.451A66.5,66.5,0,0,0,507.43,556c2.909-1.219,5.918-2.2,8.874-3.3a51.451,51.451,0,0,0,12.657-6.38,30.856,30.856,0,0,0,4.183-3.6,12.483,12.483,0,0,0,3.413-10.152,6.818,6.818,0,0,0-6.157-6.135C529.611,526.4,528.822,526.428,526.89,526.428Z" fill="#f5d0ca"/>
        <path id="Path_133" data-name="Path 133" d="M535.153,537.919a8.22,8.22,0,0,0,.62-3c-.054-5.685-8.034-4.764-11.52-3.833-4.748,1.267-9.195,3.447-13.795,5.177-8.892,3.345-18.468,5.053-26.722,9.757-2.027,1.156-4.184,2.9-4.084,5.235.1,2.4,2.574,3.986,4.884,4.659,5.776,1.683,11.962.366,17.782-1.158a120.709,120.709,0,0,0,24.471-8.79,21.968,21.968,0,0,0,5.518-3.674A13.169,13.169,0,0,0,535.153,537.919Z" fill="#1b2d44"/>
        <g id="Group_10" data-name="Group 10">
          <path id="Path_134" data-name="Path 134" d="M527.079,530.547c1.714,3.874,3.529,7.726,5.442,11.507-.072.076-.143.168-.216.239-.017.017-.038.031-.055.048-1.955-3.858-3.81-7.79-5.557-11.745C526.819,530.578,526.95,530.568,527.079,530.547Z" fill="#f5d0ca"/>
          <path id="Path_135" data-name="Path 135" d="M529.055,544.715c-.108.065-.216.131-.326.194a57.01,57.01,0,0,0-6.659-13.167c.122-.04.243-.084.365-.123A57.4,57.4,0,0,1,529.055,544.715Z" fill="#f5d0ca"/>
          <path id="Path_136" data-name="Path 136" d="M523.914,547.365c-.3-.749-.577-1.505-.9-2.24a83.061,83.061,0,0,0-6.232-11.411l.351-.143a83.27,83.27,0,0,1,6.222,11.4c.32.73.6,1.482.893,2.227C524.137,547.254,524.027,547.312,523.914,547.365Z" fill="#f5d0ca"/>
          <path id="Path_137" data-name="Path 137" d="M512.531,535.455l.349-.142a116.638,116.638,0,0,1,6.847,13.849l-.346.138A116.158,116.158,0,0,0,512.531,535.455Z" fill="#f5d0ca"/>
          <path id="Path_138" data-name="Path 138" d="M514.174,551.231l-.355.118c-2.111-4.687-4.373-9.33-6.768-13.883.119-.04.236-.084.355-.124C509.8,541.9,512.064,546.54,514.174,551.231Z" fill="#f5d0ca"/>
          <path id="Path_139" data-name="Path 139" d="M502.3,538.961l6.6,13.957c-.12.036-.24.074-.36.109l-6.6-13.958C502.058,539.035,502.178,539,502.3,538.961Z" fill="#f5d0ca"/>
          <path id="Path_140" data-name="Path 140" d="M497.5,540.437l.361-.111q3.285,6.918,6.668,13.839l-.367.1Q500.786,547.358,497.5,540.437Z" fill="#f5d0ca"/>
        </g>
        <path id="Path_141" data-name="Path 141" d="M201.285,167.21c-1.9,6.358-2.361,14.286-5.435,20.184a50.8,50.8,0,0,1-3.571,5.3c-5.161,7.437-6.7,16.1-9.867,24.351-3.086,8.043-.73,17.164-1.733,25.68-.873,7.405-3.78,14.441-4.834,21.823-.335,2.343-.456,4.847.607,6.962a11.855,11.855,0,0,0,4.488,4.345,47.21,47.21,0,0,0,32.513,6.744c.83-.133,1.489,10.933,1.68,11.677a6.674,6.674,0,0,0,5.444,5.113,31.1,31.1,0,0,0,10.222.816,124.858,124.858,0,0,0,17.964-3.037c2.819-.711,5.627-1.478,8.471-2.072a88.433,88.433,0,0,1,21.245-2.239c10.12.354,20-1.6,29.894-3.366a22.2,22.2,0,0,0,3.8-1.431,30.191,30.191,0,0,0,1.825-10.087,72.077,72.077,0,0,1,4.19-21.736c2.768-8.245,3.205-16.549,2.923-25.046-.1-3.137-.672-6.29-.06-9.427.7.036,1.366-.127,1.6.12a16.244,16.244,0,0,1,1.865,2.537c1.825,2.914,3.531,5.9,5.431,8.766a67.367,67.367,0,0,1,8.3,16.187c1.342,4.093,3.9,7.479,6.2,11.022.709,1.09,1.334,2.282.542,3.769-2.687,1.656-5.94,1.692-8.959,2.527a2.424,2.424,0,0,0-1.277,2.594,11.507,11.507,0,0,0,.921,2.181,85.519,85.519,0,0,1,7.573,13.916,10.586,10.586,0,0,0,1.151,2.068,5.39,5.39,0,0,0,3.928,2.4c2.4.214,4.845.3,6.966-.959,3.9-2.311,8.222-3.6,12.374-5.283,8.441-3.413,12.04-9.885,12.211-18.6.174-8.893-2.3-17.248-5.546-25.406a57.174,57.174,0,0,0-2.767-5.708c-11.569-21.7-23.325-43.3-35.64-64.6-1.455-2.515-3.031-4.967-4.657-7.376A66.763,66.763,0,0,0,310.21,141.8a112.624,112.624,0,0,0-16.6-8.577c-3.122.94-4.534,3.26-6.083,5.362a137.331,137.331,0,0,1-14.851,16.495,17.736,17.736,0,0,1-2.42,2.04,2.567,2.567,0,0,1-2.978.016,32.519,32.519,0,0,1-3.724-2.938A127.834,127.834,0,0,1,250,139.731c-1.8-2.283-3.66-4.524-5.541-6.742a7.073,7.073,0,0,0-4.253-2.661,138.076,138.076,0,0,0-14.181,8.054c-2.873,1.887-5.668,3.892-8.52,5.812C209.933,149.291,203.872,158.533,201.285,167.21Z" fill="#1b2d44"/>
        <path id="Path_142" data-name="Path 142" d="M231.885,76.236c-3.113,2.685-5.122,5.7-5.015,9.7a21.265,21.265,0,0,0,4.459,13.24,22.176,22.176,0,0,0,10.2,7.187c4.336,1.483,7.86,0,9.767-4.091a10.555,10.555,0,0,0,.81-6.936c-1.866-8.316-5.367-15.43-13.938-18.794-.452-.177-.777-.678-1.161-1.028-2.229-13.794-.412-18.8,11.955-32.92-4.939.283-7.375,1.745-11.45,6.785a29.76,29.76,0,0,0-5.7,12.022A31.873,31.873,0,0,0,231.885,76.236Z" fill="#1b2d44"/>
        <path id="Path_143" data-name="Path 143" d="M297.806,94.212c.051-.05.1-.1.147-.152,1.7-1.853,2-4.575,2.022-7.092a30.531,30.531,0,0,0-2.879-12.3,16.646,16.646,0,0,0-4.425-6.047c-.8-.673-1.59-1.674-2.626-.993a1.749,1.749,0,0,0-.72.9c-.131.447.115.784.294,1.2,1.435,3.362,3.26,6.571,4.685,9.959a26.74,26.74,0,0,1,1.308,4.015,18.323,18.323,0,0,1,.764,4.078c0,2.39-.05,4.732-.142,7.128A2.031,2.031,0,0,0,297.806,94.212Z" fill="#1b2d44"/>
        <path id="Path_144" data-name="Path 144" d="M317.822,268.1c-7.393,0-14.787.041-22.179-.013a72.329,72.329,0,0,0-17.254,2.14c-11.291,2.681-22.572,5.385-33.921,7.817-3.035.65-6.315.976-8.829,3.166-.306.267-.31.934-.35,1.424-.014.17.266.4.456.54a1.389,1.389,0,0,0,.695.332c5,.159,9.89,1.655,14.96,1.056a7.228,7.228,0,0,1,3.83.616,15.917,15.917,0,0,0,7.7,1.432c4.744-.153,9.5-.3,14.22-.753a107.854,107.854,0,0,1,26.032.291,266.229,266.229,0,0,0,48.985,2.258c4.144-.169,6.935-2.243,9.547-4.841a5.107,5.107,0,0,0,.962-5.887,10.339,10.339,0,0,0-3.284-4.38,24.46,24.46,0,0,0-13.058-5.177c-1.837-.15-3.693-.087-5.541-.088q-11.486-.012-22.971,0C317.822,268.05,317.822,268.074,317.822,268.1Z" fill="#ec8773"/>
        <path id="Path_145" data-name="Path 145" d="M345.011,264.545c-2.912.218-6.323,1.414-8.983,2.149a2.424,2.424,0,0,0-1.277,2.594,11.54,11.54,0,0,0,.921,2.181,85.557,85.557,0,0,1,7.573,13.916,10.56,10.56,0,0,0,1.151,2.068,5.39,5.39,0,0,0,3.928,2.4c2.4.214,4.845.3,6.966-.959a45.039,45.039,0,0,1,6.672-3.1c1.525-.594,5.181-1.08,5.3-3.146a4.847,4.847,0,0,0-.554-2.162,75.662,75.662,0,0,0-7.769-13.7,58.007,58.007,0,0,0-12.7-2.268A11.047,11.047,0,0,0,345.011,264.545Z" fill="#1b2d44"/>
        <path id="Path_146" data-name="Path 146" d="M504.032,550.131c0-1.334.006-1.862,0-2.39-.063-4.85-2.616-6.61-7.312-4.8a104.047,104.047,0,0,0-15.052,7.024c-3.419,2-6.8,4.061-10.239,6.022a24.03,24.03,0,0,0-6.551,5.653,56.184,56.184,0,0,0-9.312,16.459,5.241,5.241,0,0,0,.543,5.256,47.825,47.825,0,0,0,12.535,11.967,5.6,5.6,0,0,0,5.278.595,35.136,35.136,0,0,0,9.662-5.341A48.745,48.745,0,0,0,495.7,577.1,60.065,60.065,0,0,0,504.032,550.131Z" fill="#f5d0ca"/>
        <path id="Path_147" data-name="Path 147" d="M498.793,545.307a6.267,6.267,0,0,0-2.463,1.837c-9.2,9.715-16.042,21.369-22.8,32.91-1.742,2.973-3.521,6.049-3.972,9.466-.184,1.391.026,3.095,1.282,3.722a3.46,3.46,0,0,0,1.682.254,18.34,18.34,0,0,0,9.924-3.753,43.6,43.6,0,0,0,7.628-7.558,62.878,62.878,0,0,0,6.581-9.18,80.487,80.487,0,0,0,4.522-10.023c1.545-3.888,3.157-8.053,2.771-12.32C503.713,548.116,502,544.266,498.793,545.307Z" fill="#1b2d44"/>
        <g id="Group_11" data-name="Group 11">
          <path id="Path_148" data-name="Path 148" d="M253.047,283.295a.184.184,0,0,0,.078-.017,51.548,51.548,0,0,1,15.512-4.36.186.186,0,0,0,.163-.207.194.194,0,0,0-.207-.163,51.939,51.939,0,0,0-15.624,4.391.186.186,0,0,0,.078.356Z" fill="#d14953"/>
          <path id="Path_149" data-name="Path 149" d="M247.329,281.045a.183.183,0,0,0,.058-.01,113.743,113.743,0,0,1,12.1-3.257.186.186,0,0,0,.143-.221.184.184,0,0,0-.221-.143,114.112,114.112,0,0,0-12.142,3.268.186.186,0,0,0,.059.363Z" fill="#d14953"/>
          <path id="Path_150" data-name="Path 150" d="M263.082,276.673a.187.187,0,0,0,.116-.04,2.367,2.367,0,0,1,1.453-.507.186.186,0,0,0,0-.373,2.732,2.732,0,0,0-1.684.587.187.187,0,0,0,.116.333Z" fill="#d14953"/>
        </g>
        <g id="Group_12" data-name="Group 12">
          <path id="Path_151" data-name="Path 151" d="M257.932,68.03a.185.185,0,0,0,.15-.077,31.813,31.813,0,0,0,5.813-23,.19.19,0,0,0-.21-.159.187.187,0,0,0-.159.21,31.441,31.441,0,0,1-5.744,22.727.185.185,0,0,0,.04.26A.178.178,0,0,0,257.932,68.03Z" fill="#1b2d44"/>
          <path id="Path_152" data-name="Path 152" d="M252.125,70.105a.184.184,0,0,0,.093-.025,15.933,15.933,0,0,0,6.889-9.359,46.671,46.671,0,0,0,1.556-11.672.188.188,0,0,0-.178-.2.2.2,0,0,0-.2.178,46.3,46.3,0,0,1-1.54,11.578,15.56,15.56,0,0,1-6.718,9.146.186.186,0,0,0-.069.254A.184.184,0,0,0,252.125,70.105Z" fill="#1b2d44"/>
          <path id="Path_153" data-name="Path 153" d="M287.157,57.343a.186.186,0,0,0,.138-.312A53.729,53.729,0,0,0,274.141,46.5a.186.186,0,0,0-.185.323A53.356,53.356,0,0,1,287.02,57.281.183.183,0,0,0,287.157,57.343Z" fill="#1b2d44"/>
          <path id="Path_154" data-name="Path 154" d="M284.652,58.472a.181.181,0,0,0,.126-.05.186.186,0,0,0,.011-.263,27.559,27.559,0,0,0-9.281-6.591.187.187,0,0,0-.149.342,27.19,27.19,0,0,1,9.156,6.5A.186.186,0,0,0,284.652,58.472Z" fill="#1b2d44"/>
          <path id="Path_155" data-name="Path 155" d="M221.731,108.939a.186.186,0,0,0,.108-.337c-3.668-2.617-7.068-5.579-7.116-9.5a8.9,8.9,0,0,1,1.089-4.11.186.186,0,1,0-.332-.169,9.252,9.252,0,0,0-1.13,4.283c.05,4.091,3.525,7.13,7.272,9.8A.183.183,0,0,0,221.731,108.939Z" fill="#1b2d44"/>
          <path id="Path_156" data-name="Path 156" d="M216.7,108.235a.186.186,0,0,0,.093-.348,12.67,12.67,0,0,1-6.239-11.638.185.185,0,0,0-.173-.2.181.181,0,0,0-.2.173,13.046,13.046,0,0,0,6.426,11.986A.186.186,0,0,0,216.7,108.235Z" fill="#1b2d44"/>
          <path id="Path_157" data-name="Path 157" d="M242.915,117.322a.186.186,0,0,0,.07-.359,16.934,16.934,0,0,1-9.164-9.147.187.187,0,0,0-.345.143,17.312,17.312,0,0,0,9.368,9.349A.176.176,0,0,0,242.915,117.322Z" fill="#1b2d44"/>
        </g>
        <g id="Group_13" data-name="Group 13">
          <path id="Path_158" data-name="Path 158" d="M302.481,116.252a.186.186,0,0,0,.108-.035,12.009,12.009,0,0,0,1.156-18.572.189.189,0,0,0-.263.01.186.186,0,0,0,.01.263,11.638,11.638,0,0,1-1.12,18,.187.187,0,0,0,.109.338Z" fill="#3d1a20"/>
          <path id="Path_159" data-name="Path 159" d="M302.309,114.753a.186.186,0,0,0,.141-.065,10.726,10.726,0,0,0-.04-13.626.186.186,0,0,0-.281.245,10.342,10.342,0,0,1,.039,13.139.187.187,0,0,0,.02.263A.189.189,0,0,0,302.309,114.753Z" fill="#3d1a20"/>
          <path id="Path_160" data-name="Path 160" d="M292.57,114.95a.185.185,0,0,0,.141-.065,8.083,8.083,0,0,0,1.528-7.6.191.191,0,0,0-.235-.12.188.188,0,0,0-.12.235,7.7,7.7,0,0,1-1.456,7.241.187.187,0,0,0,.02.263A.191.191,0,0,0,292.57,114.95Z" fill="#3d1a20"/>
        </g>
        <g id="Group_14" data-name="Group 14">
          <path id="Path_161" data-name="Path 161" d="M470.231,586.7c.041-.123.086-.244.13-.367l7.941,5.776c-.132.057-.263.118-.4.173Z" fill="#f5d0ca"/>
          <path id="Path_162" data-name="Path 162" d="M480.829,588.225a46.473,46.473,0,0,0-8.687-5.749c.06-.109.119-.218.179-.327a46.84,46.84,0,0,1,8.736,5.782c.62.481,1.24.955,1.861,1.426-.1.078-.2.164-.3.24C482.022,589.146,481.426,588.691,480.829,588.225Z" fill="#f5d0ca"/>
          <path id="Path_163" data-name="Path 163" d="M474.741,577.981l.189-.322,11.982,8.08c-.087.091-.169.186-.257.276Z" fill="#f5d0ca"/>
          <path id="Path_164" data-name="Path 164" d="M477.266,573.724q6.361,4.273,12.83,8.43l-.026.033c-.071.085-.145.168-.217.253q-6.434-4.138-12.778-8.4C477.138,573.935,477.2,573.829,477.266,573.724Z" fill="#f5d0ca"/>
          <path id="Path_165" data-name="Path 165" d="M482.426,570.926c-.829-.515-1.676-1.034-2.525-1.55l.2-.317c.854.518,13.628,8.453,13.628,8.453-.073.1-.142.2-.216.3Z" fill="#f5d0ca"/>
          <path id="Path_166" data-name="Path 166" d="M482.28,565.595l.2-.313c4.481,2.945,9.043,5.814,13.65,8.568-.064.107-.13.212-.194.318C491.328,571.412,486.763,568.541,482.28,565.595Z" fill="#f5d0ca"/>
          <path id="Path_167" data-name="Path 167" d="M485.926,560.137c.071-.1.141-.206.212-.308,4.371,2.533,8.786,5.135,13.077,7.927-.05.115-.1.232-.148.347C494.758,565.293,490.32,562.681,485.926,560.137Z" fill="#f5d0ca"/>
          <path id="Path_168" data-name="Path 168" d="M488.809,556.149c.075-.1.148-.2.223-.3l12.122,7.179-.14.35Z" fill="#f5d0ca"/>
          <path id="Path_169" data-name="Path 169" d="M492.9,550.987c.081-.1.165-.19.247-.286l10.168,6.14c-.032.125-.068.249-.1.373Z" fill="#f5d0ca"/>
          <path id="Path_170" data-name="Path 170" d="M495.559,548q4.288,1.94,8.436,4.184c0,.138-.015.274-.021.412q-4.262-2.306-8.677-4.3C495.386,548.2,495.471,548.1,495.559,548Z" fill="#f5d0ca"/>
        </g>
        <path id="Path_171" data-name="Path 171" d="M268.056,113.326a.5.5,0,0,1,.562-.731,28.767,28.767,0,0,0,9.759.874c2.04-.092,3.827.016,5.771-.827a11.965,11.965,0,0,0-3.037,4.578,15.134,15.134,0,0,1-2.149.224C275.118,117.549,270.255,116.867,268.056,113.326Z" fill="#d14953"/>
        <g id="Group_16" data-name="Group 16">
          <path id="Path_172" data-name="Path 172" d="M334.736,182.759c.062.39.131.781.2,1.173a11.95,11.95,0,0,1-1.692,10.24c-.065.12-.13.244-.2.365a.423.423,0,0,0-.438.029c.1-.191.2-.384.306-.572a11.6,11.6,0,0,0,1.653-10c-.07-.394-.139-.787-.2-1.179a33.712,33.712,0,0,1,.906-14.583c.087.145.178.288.264.434A33.34,33.34,0,0,0,334.736,182.759Z" fill="#5780b5"/>
          <path id="Path_173" data-name="Path 173" d="M286.641,151.466c-5.022,6.419-10.49,10.763-16.255,12.91a4.187,4.187,0,0,1-1.437.331c-.044,0-.087,0-.131,0a4.063,4.063,0,0,1-1.828-.721A89.95,89.95,0,0,1,236.1,132.449c.109-.058.218-.121.327-.178a89.577,89.577,0,0,0,30.756,31.392,3.705,3.705,0,0,0,1.656.667,3.583,3.583,0,0,0,1.416-.3c5.7-2.122,11.113-6.426,16.09-12.79a133.95,133.95,0,0,0,7.759-11.481c1.024-1.635,2.082-3.31,3.158-4.959.115.053.232.1.347.15-1.086,1.664-2.156,3.356-3.19,5.007A134.217,134.217,0,0,1,286.641,151.466Z" fill="#5780b5"/>
          <path id="Path_174" data-name="Path 174" d="M250.911,252.79c12.4-4.54,22.793-11.456,30.041-20a113.632,113.632,0,0,0,8.388-11.8l7.156-11.032a.186.186,0,1,1,.313.2l-7.156,11.032a114.038,114.038,0,0,1-8.417,11.837c-7.29,8.595-17.732,15.549-30.2,20.11a.182.182,0,0,1-.064.012.186.186,0,0,1-.064-.361Z" fill="#5780b5"/>
          <path id="Path_175" data-name="Path 175" d="M265.39,255.159c7.678-2.348,14.21-7.774,19.972-12.563a7.93,7.93,0,0,0,2.559-2.973.187.187,0,0,1,.348.135,8.222,8.222,0,0,1-2.668,3.125c-5.79,4.811-12.351,10.264-20.1,12.633a.194.194,0,0,1-.054.008.186.186,0,0,1-.055-.364Z" fill="#5780b5"/>
          <path id="Path_176" data-name="Path 176" d="M357.273,256.368a.186.186,0,1,1,.273.253,13.95,13.95,0,0,1-3.464,2.707c-.193-.045-.386-.081-.58-.119A13.653,13.653,0,0,0,357.273,256.368Z" fill="#5780b5"/>
          <path id="Path_177" data-name="Path 177" d="M360.252,261.625a.186.186,0,1,1,.13.35,35.731,35.731,0,0,1-10.78,2.17q.51-.223,1.019-.457A35.323,35.323,0,0,0,360.252,261.625Z" fill="#5780b5"/>
          <path id="Path_178" data-name="Path 178" d="M321.712,192.334a.186.186,0,0,1,.141-.224.191.191,0,0,1,.224.141,60.512,60.512,0,0,1,1.326,17.833.855.855,0,0,0-.364-.15A60.162,60.162,0,0,0,321.712,192.334Z" fill="#5780b5"/>
          <path id="Path_179" data-name="Path 179" d="M319.942,198.508a.187.187,0,0,1,.361-.095,57.746,57.746,0,0,1,1.808,12.113q-.19.316-.352.634A57.35,57.35,0,0,0,319.942,198.508Z" fill="#5780b5"/>
          <g id="Group_15" data-name="Group 15">
            <path id="Path_180" data-name="Path 180" d="M235.937,197.317a.186.186,0,0,0-.258.054,30.927,30.927,0,0,0-1.871,3.29c-.016.334-.034.664-.052,1a30.613,30.613,0,0,1,2.234-4.081A.185.185,0,0,0,235.937,197.317Z" fill="#5780b5"/>
            <path id="Path_181" data-name="Path 181" d="M233.935,197.484a.488.488,0,0,0-.9-.244,46.41,46.41,0,0,0-3.46,11.412,28.841,28.841,0,0,1,1.959-10.589,57.914,57.914,0,0,1,3.916-7.609.187.187,0,1,0-.323-.187,58.11,58.11,0,0,0-3.939,7.659,29.24,29.24,0,0,0-1.989,12.16.174.174,0,0,0,.117.149c-.036.244-.087.494-.121.736a31.338,31.338,0,0,0-4.56-6.081,29.035,29.035,0,0,1-4.867-6.674c-.369-.791-.673-1.64-.968-2.461a10.878,10.878,0,0,0-5.735-7.325,16.669,16.669,0,0,1-4.819-4.182,17.51,17.51,0,0,0-3.448-3.281,6.261,6.261,0,0,0-2.646-.933c-.008.126-.015.252-.024.378a5.9,5.9,0,0,1,2.467.867,17.257,17.257,0,0,1,3.372,3.215,17.028,17.028,0,0,0,4.9,4.253,10.529,10.529,0,0,1,5.584,7.137c.3.829.605,1.686.981,2.492,1.276,2.74,3.752,4.588,5.124,7.174,1.273,2.4.5,4.893.377,7.438-.083,1.662.23,3.323.185,4.986-.105,3.889-2.084,7.33-3.261,10.947-1.065,3.271-.59,6.374-1.919,9.5-1.085,2.552-1.338,5.771-2.551,8.164a4.256,4.256,0,0,1-2.9,1.941c-2.688.662-5.587.145-8.222.992a8.412,8.412,0,0,0-5.446,5.708,1.43,1.43,0,0,0-.035.861c.285.769,1.418.614,2.16.263,3.863-1.824,7.083-5.02,11.214-6.112.538-.142,1.223-.2,1.543.258.369.524-.062,1.221-.451,1.729a18.176,18.176,0,0,0-2.989,5.887,2.535,2.535,0,0,0-.126,1.344.959.959,0,0,0,.987.76c.39-.064.647-.43.859-.764l3.761-5.942c.344,1.031.906,2.244,1.989,2.335.966.082,1.744-.852,1.983-1.792.66-2.595,1.6-6.473,4.214-8.063,3.867-2.351,5.971,1.817,5.794,5.3-.352,6.889-6.221,11.816-5.9,18.593.063,1.355.324,2.782-.23,4.02a6.578,6.578,0,0,1-1.893,2.172l-8.1,6.9c-2.813,2.4,3.763,1.276,4.673.862,4.224-1.925,8.488-3.873,12.169-6.7,1.927-1.479,3.676-3.186,5.668-4.575,2.589-1.806,5.571-3.063,7.9-5.189,1.839-1.676,2.374-3.927,4.454-5.619a28.968,28.968,0,0,0,4.448-4.512c.665-.842,1.132-2.349.138-2.752a1.893,1.893,0,0,0-.795-.073c-3.021.135-9.226-.413-11.667-2.588-2.971-2.646-.444-7.539-3.174-10.474-5.3-5.695-15.062,8.2-17.524,3.383-1.333-2.606.609-7.152.651-9.977a13.359,13.359,0,0,1,.182-2.667c.547-2.5,2.274-4.549,2.774-7.027a18.215,18.215,0,0,1,2.885-6.951c1.484-2.414,2.081-5.336,3.273-7.846a22.716,22.716,0,0,0,2.113-8.619C233.775,201.325,233.907,198.557,233.935,197.484Z" fill="#5780b5"/>
          </g>
          <path id="Path_182" data-name="Path 182" d="M327.635,225.106a41.864,41.864,0,0,0,4.67,8.3,21.2,21.2,0,0,1,4.046,11.129,78.475,78.475,0,0,0-6.406-11.341c-1.446-2.177-2.788-4.425-4.146-6.661A7.192,7.192,0,0,0,327.635,225.106Z" fill="#5780b5"/>
          <path id="Path_183" data-name="Path 183" d="M320.6,216.61a10.561,10.561,0,0,1,1.156-5.449q.163-.317.352-.634c.041-.069.071-.138.114-.206a.773.773,0,0,1,.812-.387.855.855,0,0,1,.364.15.952.952,0,0,1,.386.661,53.016,53.016,0,0,0,1.9,9.038c-.54,1.244-1.177,2.43-1.826,3.656-.137-.2-.28-.391-.425-.584a26,26,0,0,1-.5-4.687A1.8,1.8,0,0,0,320.6,216.61Z" fill="#5780b5"/>
          <path id="Path_184" data-name="Path 184" d="M319.627,217.719a1.4,1.4,0,0,1,.976-1.11,1.8,1.8,0,0,1,2.332,1.557,26,26,0,0,0,.5,4.687,11.339,11.339,0,0,0-.787-.968c-.233-.248-.9-.084-1.6-.12a15.329,15.329,0,0,0-.257,2.259A8.672,8.672,0,0,1,319.627,217.719Z" fill="#5780b5"/>
          <path id="Path_185" data-name="Path 185" d="M325.685,219.782a14.873,14.873,0,0,0,.9-2.633c.876-3.825,1.017-7.772,1.481-11.656.492-4.121,1.338-8,4.467-10.9.023-.021.049-.015.073-.03a.423.423,0,0,1,.438-.029.436.436,0,0,1,.209.615c-4.156,7.8-2.15,14.242-2.928,22.5-.264,2.809-.94,5.543-2.7,7.45a7.184,7.184,0,0,1-1.836,1.423c-.427-.7-.849-1.408-1.285-2.1-.208-.333-.431-.66-.653-.985C324.508,222.212,325.145,221.026,325.685,219.782Z" fill="#5780b5"/>
          <path id="Path_186" data-name="Path 186" d="M344.884,251.644a1.881,1.881,0,0,1,.947,1.652,6.363,6.363,0,0,1-1.027,2.973c-.709,1.523-1.162,1.541-.051,2.164.71.4,3.583.014,4.276.015a1.74,1.74,0,0,1,1.536.769,6.636,6.636,0,0,1,2.938-.006c.193.037.387.074.58.119a25.02,25.02,0,0,0,3.342.711c.591.058.847,1.018.153,1.132a26.985,26.985,0,0,0-6.958,2.516q-.509.234-1.019.457a13.8,13.8,0,0,1-7.73,1.426,1.405,1.405,0,0,1-.221-.07,11.788,11.788,0,0,0,3.336-1.334c.792-1.487.167-2.679-.542-3.769-1.566-2.408-3.241-4.749-4.581-7.284a10.5,10.5,0,0,1,1.192-.943C342.429,251.26,343.329,250.815,344.884,251.644Z" fill="#5780b5"/>
          <path id="Path_187" data-name="Path 187" d="M335.753,269c6.187,3.146,11.193,12.551,10.475,20.162a6.373,6.373,0,0,1-1.831-1.708,10.561,10.561,0,0,1-1.151-2.068,85.56,85.56,0,0,0-7.573-13.916,11.506,11.506,0,0,1-.921-2.181,1.013,1.013,0,0,1-.035-.165A.909.909,0,0,1,335.753,269Z" fill="#5780b5"/>
        </g>
        <ellipse id="Ellipse_1" data-name="Ellipse 1" cx="1.944" cy="2.606" rx="1.944" ry="2.606" transform="matrix(0.954, -0.299, 0.299, 0.954, 263.422, 79.542)" fill="#1b2d44"/>
        <ellipse id="Ellipse_2" data-name="Ellipse 2" cx="1.944" cy="2.606" rx="1.944" ry="2.606" transform="matrix(0.954, -0.299, 0.299, 0.954, 283.248, 76.114)" fill="#1b2d44"/>
        <path id="Path_188" data-name="Path 188" d="M277.75,79.248a21.286,21.286,0,0,0,4.5,7.134c1.918,1.865-1.65,4.949-2.936,1.969A26.794,26.794,0,0,1,277.75,79.248Z" fill="#cf3c46"/>
        <path id="Path_189" data-name="Path 189" d="M284.891,92.115l.281-.091a4.474,4.474,0,0,1,2.143-.4c.1,3.125-4.39,6.477-7.861,6.556a9.783,9.783,0,0,1-4.155-.967c-1-.5-3.039-2-3.458-2.934C276.209,93.5,280.641,93.452,284.891,92.115Z" fill="#fff"/>
        <path id="Path_190" data-name="Path 190" d="M262.431,75.5c-.491.3-1.083.66-1.591.417a1,1,0,0,1-.4-1.237,2.443,2.443,0,0,1,.945-1.077,8.72,8.72,0,0,1,5.722-1.48c.764.061,1.787.312,1.909,1.2.109.795-.482.856-1.107.838A9.683,9.683,0,0,0,262.431,75.5Z" fill="#3d1a20"/>
        <path id="Path_191" data-name="Path 191" d="M282.388,71.745c-.525.237-1.156.52-1.627.215a1,1,0,0,1-.232-1.28,2.456,2.456,0,0,1,1.074-.953,8.659,8.659,0,0,1,5.848-.752c.748.158,1.726.536,1.73,1.439,0,.8-.588.791-1.2.694A9.606,9.606,0,0,0,282.388,71.745Z" fill="#3d1a20"/>
        <path id="Path_192" data-name="Path 192" d="M239.108,76.949a21.09,21.09,0,0,1,2.691,1.432A31.578,31.578,0,0,1,248.662,90c1.709,4.877,2.318,10.335.57,15.142a6.778,6.778,0,0,1-1.162.857c2.247-4.925,1.673-10.665-.126-15.8C246.194,85.205,243.365,80.213,239.108,76.949Z" fill="#f5d0ca"/>
        <path id="Path_193" data-name="Path 193" d="M290.046,67.625a1.242,1.242,0,0,1,.662-.218,45.637,45.637,0,0,1,5.554,11.731c1.636,4.988,2.454,10.083,1.44,15.163a2.311,2.311,0,0,1-1.005.575c1.229-5.2.413-10.4-1.264-15.51a44.3,44.3,0,0,0-5.521-11.612C289.962,67.715,289.991,67.662,290.046,67.625Z" fill="#f5d0ca"/>
        <path id="Path_194" data-name="Path 194" d="M309.6,219.657a22.846,22.846,0,0,1,6.191-.771c1.084.062,2.048.633,1.684,1.732-.351,1.057-1.622,1.127-2.671,1.271a21.844,21.844,0,0,0-3.967,1.143c-2.243.757-4.6,1.18-6.856,1.879a59.993,59.993,0,0,0-5.948,2.066c-.969.416-3.3,1.126-3.754,2.077-1.094,2.3,3.722.517,4.586.194,2.644-.991,6.913-2.873,9.809-2.673,1.72.119,1.623,1.269.584,2.323-2.058,2.088-5.839,3.151-8.639,4.135-10.234,3.6-20.162,7.145-29.384,12.854-11.9,7.366-23.788,17.61-36.56,23.043-2.831.757-12.161.014-13.888-2.577-2.42-3.629,1.641-9.148,4.381-11.371,19.97-16.2,39.842-31.725,64.149-40.591,4.53-1.652,8.4-3.71,13.358-4.428q.3-.044.609-.084a4.834,4.834,0,0,1,1.541-.023,1.561,1.561,0,0,1,1.169.814,1.5,1.5,0,0,1-.592,1.636c-2.074,1.745-4.56,2.059-7.17,2.77a32.744,32.744,0,0,0-7.061,2.645c.007.143.014.287.021.43,7.289-.322,14.247-3.6,21.51-4.476a3.612,3.612,0,0,1,1.69.074,1.032,1.032,0,0,1,.735,1.227c-.162.409-.652.623-1.094.794-2.5.966-4.817,2.1-7.432,2.835s-5.216,1.619-7.879,2.242c-1.377.322-4.751.71-4.628,2.517,2.7-.369,5.03-1.392,7.613-1.963Z" fill="#ec8773"/>
        <path id="Path_195" data-name="Path 195" d="M229.218,244.35c2.648-2.074,6.409-3.771,9.2-5.247a2.483,2.483,0,0,1,2.913,1.039,11.51,11.51,0,0,1,.74,2.411,87.575,87.575,0,0,0,3.272,16.688,10.848,10.848,0,0,1,.464,2.5,6.323,6.323,0,0,1-1.681,4.9c-1.9,2.014-3.943,3.965-6.641,4.62a54.453,54.453,0,0,0-7.894,2.721c-1.724.712-5.2,3.15-6.745,1.629a4.731,4.731,0,0,1-1.042-2.113,77.766,77.766,0,0,1-2.952-16.669,72.833,72.833,0,0,1,9.29-11.555A14.065,14.065,0,0,1,229.218,244.35Z" fill="#1b2d44"/>
      </g>
      <g id="Group_18" data-name="Group 18">
        <path id="Path_196" data-name="Path 196" d="M133.86,372.2c.325-2.131.708-4.253,1.191-6.356,1.318-5.744.895-12.1,1.793-17.967,2.831-18.475,5.754-36.925,8.627-55.388a12.993,12.993,0,0,0,.252-3.092,6.674,6.674,0,0,0-.84-2.82,4.159,4.159,0,0,0-1.945-1.5c-.76-.307-2.4.939-2.609,1.887a77.335,77.335,0,0,0-1.65,8.056c-1.46,12.778-3.25,25.476-5.1,38.161-1.952,13.368-30.311,211.652-31.313,221.329-.787,7.6-2.366,15.076-2.2,22.828a8.056,8.056,0,0,0,.525,1.916c.232-.168.575-.258.678-.515a24.546,24.546,0,0,0,1.677-4.622c1.716-9.508,3.428-19.021,4.925-28.592.835-5.335,22.224-150.943,23.236-157.847.523-3.564,1.63-6.8,2.068-10.421C133.384,375.566,133.6,373.879,133.86,372.2Z" fill="#e3c6c0"/>
        <path id="Path_197" data-name="Path 197" d="M536.629,317.435c-16.424-.11-377.454-2.215-399.313-2.453a39.929,39.929,0,0,1-.726,8.654c37.459-.011,370.927-.967,400.056-1.2Q536.556,319.945,536.629,317.435Z" fill="#e3c6c0"/>
        <path id="Path_198" data-name="Path 198" d="M606.4,300.257c-1.781,1.533-3.38,1.141-4.934,1.137-5.981-.018-561.93-.124-568.853-.182-1.259-.011-2.52-.031-3.776-.154-1.909-.187-2.789-2.236-2.234-5.462,1.252-7.286,1.524-9.38,7.037-10.253a21.965,21.965,0,0,1,3.3-.178c32.109-.217,562.083-1.388,565.071-1.187a21.754,21.754,0,0,1,4.212.828c1.3.355,1.933,1.727,1.966,3.762A39.064,39.064,0,0,1,606.4,300.257Z" fill="#d57459"/>
      </g>
      <g id="Group_21" data-name="Group 21" transform="translate(348 -1)">
        <path id="Path_199" data-name="Path 199" d="M146.957,240.068c-3.87,0-7.74.03-11.61-.014a10.1,10.1,0,0,0-4.717,1.04,2.2,2.2,0,0,0-1.324,1.881c-.093,1.216-.135,2.437-.163,3.656-.023,1.017.021,2.036.01,3.053-.011.991-.575,1.5-1.467,1.4a29.978,29.978,0,0,0-4.225-.415,4.8,4.8,0,0,0-4.037,2.393,4.947,4.947,0,0,0-.022,5.748,22.285,22.285,0,0,0,3.122,3.738q4.221,3.979,8.645,7.741a10.8,10.8,0,0,1,3.183,3.614,14.88,14.88,0,0,0,3.735,4.789,10.793,10.793,0,0,1,3.047,3.754,3.547,3.547,0,0,0,2.283,1.894,17.95,17.95,0,0,0,10.231.334c1.188-.3,2.392-.848,2.677-2.22a4.9,4.9,0,0,1,1.825-3.058c3.916-3.019,5.909-7.151,6.917-11.872a93.578,93.578,0,0,0,1.95-24.284,2.179,2.179,0,0,0-1.84-2.08,22.615,22.615,0,0,0-7.22-1.025c-3.665.075-7.332.019-11,.019C146.957,240.122,146.957,240.1,146.957,240.068Zm-22.348,14.426c.724.076,1.339.1,1.936.21a3.963,3.963,0,0,1,3.642,3.536c.383,2.205.774,4.411,1.094,6.626.038.264-.306.616-.539.864-.062.067-.405-.047-.56-.16a35.872,35.872,0,0,1-6.964-6.815,8.511,8.511,0,0,1-.981-2.2,1.691,1.691,0,0,1,.749-1.538C123.55,254.812,124.127,254.647,124.608,254.494Z" fill="#5780b5"/>
        <g id="Group_19" data-name="Group 19">
          <path id="Path_200" data-name="Path 200" d="M124.534,260.327c.117,1.454.222,2.909.326,4.365l-.3-.274c-.108-1.486-.213-2.97-.333-4.455C124.332,260.083,124.43,260.208,124.534,260.327Z" fill="#1b2d44"/>
          <path id="Path_201" data-name="Path 201" d="M123.8,254.746c-.116-1.362-.224-2.721-.337-4.081.094,0,.189.006.283.007q.163,1.994.328,3.988Z" fill="#1b2d44"/>
          <path id="Path_202" data-name="Path 202" d="M134.212,240.1c.084-.007.171,0,.255-.011-.025,3.21-.032,6.42.032,9.631q.271,13.5,1.635,26.948c-.1-.124-.2-.249-.3-.376-.461-4.536-.842-9.081-1.111-13.634C134.28,255.135,134.2,247.626,134.212,240.1Z" fill="#1b2d44"/>
          <path id="Path_203" data-name="Path 203" d="M165.681,241.366a106.224,106.224,0,0,1,1.3,11.824c-.05.89-.108,1.78-.184,2.668a104.63,104.63,0,0,0-1.426-14.623C165.479,241.275,165.581,241.32,165.681,241.366Z" fill="#1b2d44"/>
          <path id="Path_204" data-name="Path 204" d="M128.017,263.825c.075,1.313.171,2.625.26,3.937-.105-.093-.213-.184-.317-.277-.089-1.309-.163-2.62-.237-3.931C127.822,263.644,127.917,263.737,128.017,263.825Z" fill="#1b2d44"/>
          <path id="Path_205" data-name="Path 205" d="M127.345,254.9c-.042-1.294-.084-2.588-.112-3.882.1.013.2.027.3.039.028,1.316.05,2.632.093,3.947C127.529,254.972,127.443,254.933,127.345,254.9Z" fill="#1b2d44"/>
          <path id="Path_206" data-name="Path 206" d="M156.971,251.4a69.3,69.3,0,0,0,.707-11.272c.085,0,.17,0,.255,0a62.06,62.06,0,0,1-.487,9.679c-1.114,9.815-2.146,19.589-2.48,29.469-.056,1.651-.078,3.3-.1,4.956-.1.05-.2.1-.3.14.057-3.5.168-7,.352-10.494C155.309,266.357,156.062,258.878,156.971,251.4Z" fill="#1b2d44"/>
          <path id="Path_207" data-name="Path 207" d="M134.063,256.3c-.332-5.337-.785-10.673-1.1-16.013.089-.019.181-.025.271-.042.5,8.4,1.37,16.778,1.506,25.2.047,2.93-.015,5.864-.209,8.784-.055-.11-.124-.211-.176-.324-.016-.035-.04-.062-.057-.1A144.8,144.8,0,0,0,134.063,256.3Z" fill="#1b2d44"/>
          <path id="Path_208" data-name="Path 208" d="M142.089,251.443c-.044-3.787-.09-7.578-.089-11.367h.272c.006,7.433.27,14.867.062,22.3a97.706,97.706,0,0,1-2.1,18.556c-.067-.089-.133-.18-.2-.267.3-1.329.56-2.665.779-4.009C142.165,268.33,142.188,259.857,142.089,251.443Z" fill="#1b2d44"/>
          <path id="Path_209" data-name="Path 209" d="M144.1,240.073h.251c.268,11.744-.455,23.534.194,35.274.177,3.187.472,6.368.909,9.53l-.276-.06C143.182,270.011,144.448,254.991,144.1,240.073Z" fill="#1b2d44"/>
          <path id="Path_210" data-name="Path 210" d="M149.466,279.213a207.037,207.037,0,0,0,2.372-26.716c.173-4.108.248-8.219.264-12.331h.279c0,.913.017,1.825.006,2.738q-.161,12.7-1.314,25.359a88,88,0,0,1-2.745,16.97c-.08,0-.159-.014-.239-.018A53.974,53.974,0,0,0,149.466,279.213Z" fill="#1b2d44"/>
        </g>
        <g id="Group_20" data-name="Group 20">
          <path id="Path_211" data-name="Path 211" d="M148.2,277.967a.591.591,0,0,1,.318-.077c7.809.445,13.409-2.541,15.649-10.369.039-.135.084-.26.121-.4l.006-.027c1.249-4.716,1.419-9.659,2.135-14.5.015-.1.029-.2.044-.3.152-.992.319-1.982.535-2.962a.144.144,0,0,1,.118-.118,93.4,93.4,0,0,1-2.057,18.3c-1.007,4.72-3,8.853-6.917,11.872a4.83,4.83,0,0,0-.393.366c-3.14,1.719-6.853,2.044-9.742-.658a.6.6,0,0,1-.153-.249A.746.746,0,0,1,148.2,277.967Z" fill="#1b2d44"/>
          <path id="Path_212" data-name="Path 212" d="M140.846,278.984c.537.134.443,1.057-.134.992-.491-.055-.991-.129-1.489-.213q-.549-.551-1.137-1.077a16.4,16.4,0,0,1-2.994-3.433C136.849,276.763,138.544,278.407,140.846,278.984Z" fill="#1b2d44"/>
          <path id="Path_213" data-name="Path 213" d="M133.252,260.73c-.04.838-1.354,1.4-1.75.474a8.672,8.672,0,0,0-1.135-1.914c-.061-.35-.12-.7-.181-1.05a3.963,3.963,0,0,0-3.642-3.536c-.6-.112-1.212-.135-1.936-.21-.3.1-.645.2-1,.314a.96.96,0,0,1,.409-.378A6.654,6.654,0,0,1,133.252,260.73Z" fill="#1b2d44"/>
        </g>
      </g>
      <g id="Group_24" data-name="Group 24">
        <path id="Path_214" data-name="Path 214" d="M351.078,285.009c21.154-.112,57.438-.653,59.072-.638a11.666,11.666,0,0,0,9.957-5.3,23.614,23.614,0,0,0,2.578-4.712,75.031,75.031,0,0,0,2.834-7.828c3.2-10.978,6.14-22.026,8.665-33.179a64.159,64.159,0,0,0,1.766-13.1,37.132,37.132,0,0,0-.266-4.877,3.036,3.036,0,0,0-2.676-2.5c-1.954-.149-3.914-.262-5.873-.282-4.74-.048-61.951-.212-63.255-.136A10.847,10.847,0,0,0,354.62,218a35.478,35.478,0,0,0-2.531,5.295c-.984,2.593-1.89,5.229-2.609,7.906-3.559,13.249-7.275,26.458-10.275,39.852-.571,2.548-1.327,5.053-2.018,7.573a2.033,2.033,0,0,1-1.8,1.413c-1.47.038-23.373.035-32.853.06-1.625,0-3.254.157-4.874.316a2.092,2.092,0,0,0-.221,4.01,13.421,13.421,0,0,0,2.387.477c1.466.1,2.939.106,4.41.106C321.4,285.011,338.56,285.076,351.078,285.009Z" fill="#e3c6c0"/>
        <path id="Path_215" data-name="Path 215" d="M337.012,283.41s.116-1.1.173-1.625a2.385,2.385,0,0,0-.107-1.309c-.436-.884-4.354-.422-5.261-.42-3.03.008-22.555.022-29.286.04-1.625,0-3.254.157-4.874.316a2.092,2.092,0,0,0-.221,4.01,13.421,13.421,0,0,0,2.387.477c1.466.1,2.939.106,4.41.106,5.772,0,22.859.027,25.631.03,1.332,0,6.065.779,6.838-.464A2.71,2.71,0,0,0,337.012,283.41Z" fill="#1b2d44"/>
        <g id="Group_22" data-name="Group 22">
          <path id="Path_216" data-name="Path 216" d="M345.7,255.029c3.218-13.047,6.545-26.538,12.841-38.627a14.387,14.387,0,0,1,2.341-3.425c.146-.044.3-.079.447-.117a13.238,13.238,0,0,0-2.584,3.649c-6.283,12.065-9.607,25.542-12.822,38.576-2.079,8.431-4.231,17.147-7.166,25.437-.083.007-.167.012-.25.02C341.454,272.232,343.612,263.487,345.7,255.029Z" fill="#1b2d44"/>
          <path id="Path_217" data-name="Path 217" d="M338.489,280.541l.017,0c.083-.008.167-.012.25-.02,9.5-.859,19.188-.529,28.567-.2,9.247.319,18.807.652,28.163-.164,1.587-.139,3.2-.313,4.758-.481a102.033,102.033,0,0,1,10.895-.783h.1a74.642,74.642,0,0,1,8.548.59c-.055.072-.112.141-.168.212a73.953,73.953,0,0,0-8.38-.572h-.1a101.831,101.831,0,0,0-10.87.782c-1.56.169-3.174.343-4.763.481-4.355.38-8.751.511-13.14.511-5.054,0-10.1-.175-15.051-.346a278.8,278.8,0,0,0-28.8.223.12.12,0,0,1-.125-.1A.115.115,0,0,1,338.489,280.541Z" fill="#1b2d44"/>
        </g>
        <path id="Path_218" data-name="Path 218" d="M396.926,242.394a6.4,6.4,0,0,1,.634.441c4.252,3.353.991,9.07-2.478,11.589a11.528,11.528,0,0,1-5.491,2.313c-9.168.94-7.318-10.6-1.608-13.759C390.659,241.5,394.15,240.7,396.926,242.394Z" fill="#fff"/>
        <g id="Group_23" data-name="Group 23" opacity="0.33">
          <path id="Path_219" data-name="Path 219" d="M431.55,244.32,384.4,212.451c-6.5-.012-12.236-.018-15.87-.016l60.65,40.994Q430.4,248.884,431.55,244.32Z" fill="#fff"/>
          <path id="Path_220" data-name="Path 220" d="M394.936,212.473l-5.445-.012,42.8,28.927c.258-1.052.5-2.109.746-3.164Z" fill="#fff"/>
          <path id="Path_221" data-name="Path 221" d="M351.615,237.036q-.676,2.07-1.349,4.14l58.312,39.413c2.453-.022,4.905-.059,7.359-.078Z" fill="#fff"/>
          <path id="Path_222" data-name="Path 222" d="M364.478,281.165c6.315-.106,12.631-.225,18.946-.31l-37.706-25.486q-1.711,5.411-3.367,10.839Z" fill="#fff"/>
        </g>
      </g>
    </g>
  </g>
</svg>
